<?xml version="1.0" encoding="UTF-8" standalone="no"?>
<svg
   id="Layer_1"
   viewBox="0 0 16 16"
   version="1.1"
   sodipodi:docname="github.svg"
   inkscape:version="1.3 (0e150ed6c4, 2023-07-21)"
   xmlns:inkscape="http://www.inkscape.org/namespaces/inkscape"
   xmlns:sodipodi="http://sodipodi.sourceforge.net/DTD/sodipodi-0.dtd"
   xmlns="http://www.w3.org/2000/svg"
   xmlns:svg="http://www.w3.org/2000/svg">
  <defs
     id="defs1" />
  <sodipodi:namedview
     id="namedview1"
     pagecolor="#ffffff"
     bordercolor="#000000"
     borderopacity="0.25"
     inkscape:showpageshadow="2"
     inkscape:pageopacity="0.0"
     inkscape:pagecheckerboard="0"
     inkscape:deskcolor="#d1d1d1"
     inkscape:zoom="68.6875"
     inkscape:cx="7.9927207"
     inkscape:cy="8"
     inkscape:window-width="2560"
     inkscape:window-height="1334"
     inkscape:window-x="-11"
     inkscape:window-y="-11"
     inkscape:window-maximized="1"
     inkscape:current-layer="Layer_1" />
  <title
     id="title1">github</title>
  <path
     d="M8 0c4.42 0 8 3.58 8 8a8.013 8.013 0 0 1-5.45 7.59c-.4.08-.55-.17-.55-.38 0-.27.01-1.13.01-2.2 0-.75-.25-1.23-.54-1.48 1.78-.2 3.65-.88 3.65-3.95 0-.88-.31-1.59-.82-2.15.08-.2.36-1.02-.08-2.12 0 0-.67-.22-2.2.82-.64-.18-1.32-.27-2-.27-.68 0-1.36.09-2 .27-1.53-1.03-2.2-.82-2.2-.82-.44 1.1-.16 1.92-.08 2.12-.51.56-.82 1.28-.82 2.15 0 3.06 1.86 3.75 3.64 3.95-.23.2-.44.55-.51 1.07-.46.21-1.61.55-2.33-.66-.15-.24-.6-.83-1.23-.82-.67.01-.27.38.01.53.34.19.73.9.82 1.13.16.45.68 1.31 2.69.94 0 .67.01 1.3.01 1.49 0 .21-.15.45-.55.38A7.995 7.995 0 0 1 0 8c0-4.42 3.58-8 8-8Z"
     id="path1"
     style="fill:#3875f6;fill-opacity:1" />
  <path
     style="fill:#0000ff;fill-opacity:0;stroke-width:0.0145587"
     d="M 5.4959054,15.58567 C 5.3363807,15.55152 4.8338214,15.346159 4.4622384,15.163283 3.7007303,14.788503 3.040045,14.320734 2.4259283,13.721565 1.0172425,12.347166 0.18722947,10.569861 0.02927961,8.5896269 0.00976709,8.3449964 0.00974654,7.6621641 0.029244,7.4060493 0.21832722,4.9222878 1.5423169,2.6791675 3.6251137,1.3138809 5.4806819,0.09754409 7.7536933,-0.29007039 9.9144677,0.24136335 11.763894,0.6962223 13.392788,1.8038423 14.510498,3.3665861 c 1.221574,1.7079609 1.718488,3.8582451 1.372542,5.9393594 -0.23487,1.4129075 -0.842851,2.7316395 -1.773745,3.8473185 -0.185635,0.222483 -0.631234,0.675029 -0.862805,0.876255 -0.699851,0.608144 -1.471329,1.07664 -2.329636,1.414723 -0.355264,0.139937 -0.383303,0.147957 -0.51467,0.147205 -0.183377,-0.0011 -0.29805,-0.07405 -0.365714,-0.232813 -0.0223,-0.05232 -0.02461,-0.175007 -0.02593,-1.375013 -0.0013,-1.200498 -0.0037,-1.329203 -0.027339,-1.448589 -0.078745,-0.398426 -0.1917725,-0.657483 -0.3891908,-0.892016 -0.056217,-0.06678 -0.081851,-0.107602 -0.069813,-0.111164 0.010462,-0.0031 0.084536,-0.01341 0.1646091,-0.02292 0.2097612,-0.02491 0.5734327,-0.09461 0.7969097,-0.152737 1.352528,-0.351796 2.156419,-1.121568 2.478867,-2.3736575 0.08751,-0.3398212 0.130626,-0.6438898 0.153849,-1.0850807 C 13.146972,7.3553082 13.098475,6.940129 12.956951,6.5150136 12.853037,6.2028748 12.63238,5.8112109 12.411811,5.5473944 12.35619,5.480868 12.317653,5.4219242 12.321387,5.4090868 c 0.0036,-0.012304 0.02345,-0.07979 0.04415,-0.1499673 0.07531,-0.2552862 0.08864,-0.3685432 0.08864,-0.753205 0,-0.2790632 -0.0056,-0.3867873 -0.02572,-0.4949955 C 12.394567,3.8286781 12.327452,3.5764256 12.27227,3.4239227 12.22897,3.3042634 12.22645,3.3008876 12.17397,3.2922105 12.08378,3.2772985 11.95682,3.2818435 11.795837,3.3057475 11.361087,3.3703015 10.782305,3.623426 10.192055,4.007145 10.065068,4.089698 10.016745,4.1137178 9.9882332,4.1084564 9.9676822,4.1046634 9.8498161,4.077707 9.7263124,4.0485532 8.6333631,3.7905556 7.3855445,3.7907196 6.311192,4.0490018 6.1910828,4.0778769 6.0758876,4.104634 6.0552026,4.1084621 6.0266902,4.1137387 5.9791524,4.0910107 5.8586603,4.0144948 5.4875726,3.778843 5.0638636,3.5594966 4.7679709,3.4498642 4.4605542,3.3359623 4.0820882,3.2658871 3.8990054,3.2889703 l -0.082796,0.010439 -0.037091,0.097338 C 3.5421443,4.0186458 3.5081459,4.7534949 3.6905018,5.3121268 L 3.7273208,5.4249188 3.602332,5.5805213 C 3.2508055,6.0181471 3.0355302,6.5150978 2.9452484,7.0973612 2.9101873,7.3234848 2.9105619,7.9395558 2.9459551,8.2592156 3.1374125,9.9884009 3.9936603,10.97926 5.6413275,11.37833 c 0.222023,0.05377 0.5775391,0.119156 0.7499373,0.137918 0.1524564,0.01659 0.1490829,0.01375 0.090272,0.07594 -0.1978085,0.209171 -0.3407364,0.505564 -0.4116877,0.853728 -0.01646,0.08077 -0.031402,0.148331 -0.033205,0.150134 -0.0018,0.0018 -0.063646,0.02659 -0.1374278,0.05509 C 5.5956384,12.768381 5.2468718,12.822175 4.9815805,12.792676 4.4651162,12.735248 4.1009703,12.493319 3.7542649,11.97728 3.5797971,11.717601 3.4611739,11.577278 3.3039426,11.444582 3.0087796,11.195478 2.7618992,11.103357 2.4314481,11.11902 c -0.2616358,0.0124 -0.3501831,0.0746 -0.2985768,0.209728 0.030096,0.0788 0.185128,0.225578 0.3207304,0.303645 0.2019008,0.116236 0.4264954,0.371827 0.6332584,0.720655 0.092013,0.155234 0.1285808,0.227682 0.2881022,0.570784 0.1739332,0.3741 0.4670509,0.627802 0.8874943,0.768154 0.4271096,0.142577 0.9453643,0.158021 1.6714644,0.04981 l 0.05949,-0.0089 0.00966,0.46257 c 0.015822,0.75734 0.012734,1.053665 -0.011846,1.136434 -0.055716,0.187618 -0.2763125,0.300621 -0.4953234,0.253736 z"
     id="path2" />
  <path
     style="fill:#0000ff;fill-opacity:0;stroke-width:0.0145587"
     d="M 5.4959054,15.58567 C 5.3363807,15.55152 4.8338214,15.346159 4.4622384,15.163283 3.7007303,14.788503 3.040045,14.320734 2.4259283,13.721565 1.0172425,12.347166 0.18722947,10.569861 0.02927961,8.5896269 0.00976709,8.3449964 0.00974654,7.6621641 0.029244,7.4060493 0.21832722,4.9222878 1.5423169,2.6791675 3.6251137,1.3138809 5.4806819,0.09754409 7.7536933,-0.29007039 9.9144677,0.24136335 11.763894,0.6962223 13.392788,1.8038423 14.510498,3.3665861 c 1.221574,1.7079609 1.718488,3.8582451 1.372542,5.9393594 -0.23487,1.4129075 -0.842851,2.7316395 -1.773745,3.8473185 -0.185635,0.222483 -0.631234,0.675029 -0.862805,0.876255 -0.699851,0.608144 -1.471329,1.07664 -2.329636,1.414723 -0.355264,0.139937 -0.383303,0.147957 -0.51467,0.147205 -0.183377,-0.0011 -0.29805,-0.07405 -0.365714,-0.232813 -0.0223,-0.05232 -0.02461,-0.175007 -0.02593,-1.375013 -0.0013,-1.200498 -0.0037,-1.329203 -0.027339,-1.448589 -0.078745,-0.398426 -0.1917725,-0.657483 -0.3891908,-0.892016 -0.056217,-0.06678 -0.081851,-0.107602 -0.069813,-0.111164 0.010462,-0.0031 0.084536,-0.01341 0.1646091,-0.02292 0.2097612,-0.02491 0.5734327,-0.09461 0.7969097,-0.152737 1.352528,-0.351796 2.156419,-1.121568 2.478867,-2.3736575 0.08751,-0.3398212 0.130626,-0.6438898 0.153849,-1.0850807 C 13.146972,7.3553082 13.098475,6.940129 12.956951,6.5150136 12.853037,6.2028748 12.63238,5.8112109 12.411811,5.5473944 12.35619,5.480868 12.317653,5.4219242 12.321387,5.4090868 c 0.0036,-0.012304 0.02345,-0.07979 0.04415,-0.1499673 0.07531,-0.2552862 0.08864,-0.3685432 0.08864,-0.753205 0,-0.2790632 -0.0056,-0.3867873 -0.02572,-0.4949955 C 12.394567,3.8286781 12.327452,3.5764256 12.27227,3.4239227 12.22897,3.3042634 12.22645,3.3008876 12.17397,3.2922105 12.08378,3.2772985 11.95682,3.2818435 11.795837,3.3057475 11.361087,3.3703015 10.782305,3.623426 10.192055,4.007145 10.065068,4.089698 10.016745,4.1137178 9.9882332,4.1084564 9.9676822,4.1046634 9.8498161,4.077707 9.7263124,4.0485532 8.6333631,3.7905556 7.3855445,3.7907196 6.311192,4.0490018 6.1910828,4.0778769 6.0758876,4.104634 6.0552026,4.1084621 6.0266902,4.1137387 5.9791524,4.0910107 5.8586603,4.0144948 5.4875726,3.778843 5.0638636,3.5594966 4.7679709,3.4498642 4.4605542,3.3359623 4.0820882,3.2658871 3.8990054,3.2889703 l -0.082796,0.010439 -0.037091,0.097338 C 3.5421443,4.0186458 3.5081459,4.7534949 3.6905018,5.3121268 L 3.7273208,5.4249188 3.602332,5.5805213 C 3.2508055,6.0181471 3.0355302,6.5150978 2.9452484,7.0973612 2.9101873,7.3234848 2.9105619,7.9395558 2.9459551,8.2592156 3.1374125,9.9884009 3.9936603,10.97926 5.6413275,11.37833 c 0.222023,0.05377 0.5775391,0.119156 0.7499373,0.137918 0.1524564,0.01659 0.1490829,0.01375 0.090272,0.07594 -0.1978085,0.209171 -0.3407364,0.505564 -0.4116877,0.853728 -0.01646,0.08077 -0.031402,0.148331 -0.033205,0.150134 -0.0018,0.0018 -0.063646,0.02659 -0.1374278,0.05509 C 5.5956384,12.768381 5.2468718,12.822175 4.9815805,12.792676 4.4651162,12.735248 4.1009703,12.493319 3.7542649,11.97728 3.5797971,11.717601 3.4611739,11.577278 3.3039426,11.444582 3.0087796,11.195478 2.7618992,11.103357 2.4314481,11.11902 c -0.2616358,0.0124 -0.3501831,0.0746 -0.2985768,0.209728 0.030096,0.0788 0.185128,0.225578 0.3207304,0.303645 0.2019008,0.116236 0.4264954,0.371827 0.6332584,0.720655 0.092013,0.155234 0.1285808,0.227682 0.2881022,0.570784 0.1739332,0.3741 0.4670509,0.627802 0.8874943,0.768154 0.4271096,0.142577 0.9453643,0.158021 1.6714644,0.04981 l 0.05949,-0.0089 0.00966,0.46257 c 0.015822,0.75734 0.012734,1.053665 -0.011846,1.136434 -0.055716,0.187618 -0.2763125,0.300621 -0.4953234,0.253736 z"
     id="path3" />
  <path
     style="fill:#0000ff;fill-opacity:0;stroke-width:0.0145587"
     d="M 5.4959054,15.58567 C 5.3363807,15.55152 4.8338214,15.346159 4.4622384,15.163283 3.7007303,14.788503 3.040045,14.320734 2.4259283,13.721565 1.0172425,12.347166 0.18722947,10.569861 0.02927961,8.5896269 0.00976709,8.3449964 0.00974654,7.6621641 0.029244,7.4060493 0.21832722,4.9222878 1.5423169,2.6791675 3.6251137,1.3138809 5.4806819,0.09754409 7.7536933,-0.29007039 9.9144677,0.24136335 11.763894,0.6962223 13.392788,1.8038423 14.510498,3.3665861 c 1.221574,1.7079609 1.718488,3.8582451 1.372542,5.9393594 -0.23487,1.4129075 -0.842851,2.7316395 -1.773745,3.8473185 -0.185635,0.222483 -0.631234,0.675029 -0.862805,0.876255 -0.699851,0.608144 -1.471329,1.07664 -2.329636,1.414723 -0.355264,0.139937 -0.383303,0.147957 -0.51467,0.147205 -0.183377,-0.0011 -0.29805,-0.07405 -0.365714,-0.232813 -0.0223,-0.05232 -0.02461,-0.175007 -0.02593,-1.375013 -0.0013,-1.200498 -0.0037,-1.329203 -0.027339,-1.448589 -0.078745,-0.398426 -0.1917725,-0.657483 -0.3891908,-0.892016 -0.056217,-0.06678 -0.081851,-0.107602 -0.069813,-0.111164 0.010462,-0.0031 0.084536,-0.01341 0.1646091,-0.02292 0.2097612,-0.02491 0.5734327,-0.09461 0.7969097,-0.152737 1.352528,-0.351796 2.156419,-1.121568 2.478867,-2.3736575 0.08751,-0.3398212 0.130626,-0.6438898 0.153849,-1.0850807 C 13.146972,7.3553082 13.098475,6.940129 12.956951,6.5150136 12.853037,6.2028748 12.63238,5.8112109 12.411811,5.5473944 12.35619,5.480868 12.317653,5.4219242 12.321387,5.4090868 c 0.0036,-0.012304 0.02345,-0.07979 0.04415,-0.1499673 0.07531,-0.2552862 0.08864,-0.3685432 0.08864,-0.753205 0,-0.2790632 -0.0056,-0.3867873 -0.02572,-0.4949955 C 12.394567,3.8286781 12.327452,3.5764256 12.27227,3.4239227 12.22897,3.3042634 12.22645,3.3008876 12.17397,3.2922105 12.08378,3.2772985 11.95682,3.2818435 11.795837,3.3057475 11.361087,3.3703015 10.782305,3.623426 10.192055,4.007145 10.065068,4.089698 10.016745,4.1137178 9.9882332,4.1084564 9.9676822,4.1046634 9.8498161,4.077707 9.7263124,4.0485532 8.6333631,3.7905556 7.3855445,3.7907196 6.311192,4.0490018 6.1910828,4.0778769 6.0758876,4.104634 6.0552026,4.1084621 6.0266902,4.1137387 5.9791524,4.0910107 5.8586603,4.0144948 5.4875726,3.778843 5.0638636,3.5594966 4.7679709,3.4498642 4.4605542,3.3359623 4.0820882,3.2658871 3.8990054,3.2889703 l -0.082796,0.010439 -0.037091,0.097338 C 3.5421443,4.0186458 3.5081459,4.7534949 3.6905018,5.3121268 L 3.7273208,5.4249188 3.602332,5.5805213 C 3.2508055,6.0181471 3.0355302,6.5150978 2.9452484,7.0973612 2.9101873,7.3234848 2.9105619,7.9395558 2.9459551,8.2592156 3.1374125,9.9884009 3.9936603,10.97926 5.6413275,11.37833 c 0.222023,0.05377 0.5775391,0.119156 0.7499373,0.137918 0.1524564,0.01659 0.1490829,0.01375 0.090272,0.07594 -0.1978085,0.209171 -0.3407364,0.505564 -0.4116877,0.853728 -0.01646,0.08077 -0.031402,0.148331 -0.033205,0.150134 -0.0018,0.0018 -0.063646,0.02659 -0.1374278,0.05509 C 5.5956384,12.768381 5.2468718,12.822175 4.9815805,12.792676 4.4651162,12.735248 4.1009703,12.493319 3.7542649,11.97728 3.5797971,11.717601 3.4611739,11.577278 3.3039426,11.444582 3.0087796,11.195478 2.7618992,11.103357 2.4314481,11.11902 c -0.2616358,0.0124 -0.3501831,0.0746 -0.2985768,0.209728 0.030096,0.0788 0.185128,0.225578 0.3207304,0.303645 0.2019008,0.116236 0.4264954,0.371827 0.6332584,0.720655 0.092013,0.155234 0.1285808,0.227682 0.2881022,0.570784 0.1739332,0.3741 0.4670509,0.627802 0.8874943,0.768154 0.4271096,0.142577 0.9453643,0.158021 1.6714644,0.04981 l 0.05949,-0.0089 0.00966,0.46257 c 0.015822,0.75734 0.012734,1.053665 -0.011846,1.136434 -0.055716,0.187618 -0.2763125,0.300621 -0.4953234,0.253736 z"
     id="path4" />
  <path
     style="fill:#0000ff;fill-opacity:0;stroke-width:0.0145587"
     d="M 5.4959054,15.58567 C 5.3363807,15.55152 4.8338214,15.346159 4.4622384,15.163283 3.7007303,14.788503 3.040045,14.320734 2.4259283,13.721565 1.0172425,12.347166 0.18722947,10.569861 0.02927961,8.5896269 0.00976709,8.3449964 0.00974654,7.6621641 0.029244,7.4060493 0.21832722,4.9222878 1.5423169,2.6791675 3.6251137,1.3138809 5.4806819,0.09754409 7.7536933,-0.29007039 9.9144677,0.24136335 11.763894,0.6962223 13.392788,1.8038423 14.510498,3.3665861 c 1.221574,1.7079609 1.718488,3.8582451 1.372542,5.9393594 -0.23487,1.4129075 -0.842851,2.7316395 -1.773745,3.8473185 -0.185635,0.222483 -0.631234,0.675029 -0.862805,0.876255 -0.699851,0.608144 -1.471329,1.07664 -2.329636,1.414723 -0.355264,0.139937 -0.383303,0.147957 -0.51467,0.147205 -0.183377,-0.0011 -0.29805,-0.07405 -0.365714,-0.232813 -0.0223,-0.05232 -0.02461,-0.175007 -0.02593,-1.375013 -0.0013,-1.200498 -0.0037,-1.329203 -0.027339,-1.448589 -0.078745,-0.398426 -0.1917725,-0.657483 -0.3891908,-0.892016 -0.056217,-0.06678 -0.081851,-0.107602 -0.069813,-0.111164 0.010462,-0.0031 0.084536,-0.01341 0.1646091,-0.02292 0.2097612,-0.02491 0.5734327,-0.09461 0.7969097,-0.152737 1.352528,-0.351796 2.156419,-1.121568 2.478867,-2.3736575 0.08751,-0.3398212 0.130626,-0.6438898 0.153849,-1.0850807 C 13.146972,7.3553082 13.098475,6.940129 12.956951,6.5150136 12.853037,6.2028748 12.63238,5.8112109 12.411811,5.5473944 12.35619,5.480868 12.317653,5.4219242 12.321387,5.4090868 c 0.0036,-0.012304 0.02345,-0.07979 0.04415,-0.1499673 0.07531,-0.2552862 0.08864,-0.3685432 0.08864,-0.753205 0,-0.2790632 -0.0056,-0.3867873 -0.02572,-0.4949955 C 12.394567,3.8286781 12.327452,3.5764256 12.27227,3.4239227 12.22897,3.3042634 12.22645,3.3008876 12.17397,3.2922105 12.08378,3.2772985 11.95682,3.2818435 11.795837,3.3057475 11.361087,3.3703015 10.782305,3.623426 10.192055,4.007145 10.065068,4.089698 10.016745,4.1137178 9.9882332,4.1084564 9.9676822,4.1046634 9.8498161,4.077707 9.7263124,4.0485532 8.6333631,3.7905556 7.3855445,3.7907196 6.311192,4.0490018 6.1910828,4.0778769 6.0758876,4.104634 6.0552026,4.1084621 6.0266902,4.1137387 5.9791524,4.0910107 5.8586603,4.0144948 5.4875726,3.778843 5.0638636,3.5594966 4.7679709,3.4498642 4.4605542,3.3359623 4.0820882,3.2658871 3.8990054,3.2889703 l -0.082796,0.010439 -0.037091,0.097338 C 3.5421443,4.0186458 3.5081459,4.7534949 3.6905018,5.3121268 L 3.7273208,5.4249188 3.602332,5.5805213 C 3.2508055,6.0181471 3.0355302,6.5150978 2.9452484,7.0973612 2.9101873,7.3234848 2.9105619,7.9395558 2.9459551,8.2592156 3.1374125,9.9884009 3.9936603,10.97926 5.6413275,11.37833 c 0.222023,0.05377 0.5775391,0.119156 0.7499373,0.137918 0.1524564,0.01659 0.1490829,0.01375 0.090272,0.07594 -0.1978085,0.209171 -0.3407364,0.505564 -0.4116877,0.853728 -0.01646,0.08077 -0.031402,0.148331 -0.033205,0.150134 -0.0018,0.0018 -0.063646,0.02659 -0.1374278,0.05509 C 5.5956384,12.768381 5.2468718,12.822175 4.9815805,12.792676 4.4651162,12.735248 4.1009703,12.493319 3.7542649,11.97728 3.5797971,11.717601 3.4611739,11.577278 3.3039426,11.444582 3.0087796,11.195478 2.7618992,11.103357 2.4314481,11.11902 c -0.2616358,0.0124 -0.3501831,0.0746 -0.2985768,0.209728 0.030096,0.0788 0.185128,0.225578 0.3207304,0.303645 0.2019008,0.116236 0.4264954,0.371827 0.6332584,0.720655 0.092013,0.155234 0.1285808,0.227682 0.2881022,0.570784 0.1739332,0.3741 0.4670509,0.627802 0.8874943,0.768154 0.4271096,0.142577 0.9453643,0.158021 1.6714644,0.04981 l 0.05949,-0.0089 0.00966,0.46257 c 0.015822,0.75734 0.012734,1.053665 -0.011846,1.136434 -0.055716,0.187618 -0.2763125,0.300621 -0.4953234,0.253736 z"
     id="path5" />
  <path
     style="fill:#0000ff;fill-opacity:0;stroke-width:0.0145587"
     d="M 5.4959054,15.58567 C 5.3363807,15.55152 4.8338214,15.346159 4.4622384,15.163283 3.7007303,14.788503 3.040045,14.320734 2.4259283,13.721565 1.0172425,12.347166 0.18722947,10.569861 0.02927961,8.5896269 0.00976709,8.3449964 0.00974654,7.6621641 0.029244,7.4060493 0.21832722,4.9222878 1.5423169,2.6791675 3.6251137,1.3138809 5.4806819,0.09754409 7.7536933,-0.29007039 9.9144677,0.24136335 11.763894,0.6962223 13.392788,1.8038423 14.510498,3.3665861 c 1.221574,1.7079609 1.718488,3.8582451 1.372542,5.9393594 -0.23487,1.4129075 -0.842851,2.7316395 -1.773745,3.8473185 -0.185635,0.222483 -0.631234,0.675029 -0.862805,0.876255 -0.699851,0.608144 -1.471329,1.07664 -2.329636,1.414723 -0.355264,0.139937 -0.383303,0.147957 -0.51467,0.147205 -0.183377,-0.0011 -0.29805,-0.07405 -0.365714,-0.232813 -0.0223,-0.05232 -0.02461,-0.175007 -0.02593,-1.375013 -0.0013,-1.200498 -0.0037,-1.329203 -0.027339,-1.448589 -0.078745,-0.398426 -0.1917725,-0.657483 -0.3891908,-0.892016 -0.056217,-0.06678 -0.081851,-0.107602 -0.069813,-0.111164 0.010462,-0.0031 0.084536,-0.01341 0.1646091,-0.02292 0.2097612,-0.02491 0.5734327,-0.09461 0.7969097,-0.152737 1.352528,-0.351796 2.156419,-1.121568 2.478867,-2.3736575 0.08751,-0.3398212 0.130626,-0.6438898 0.153849,-1.0850807 C 13.146972,7.3553082 13.098475,6.940129 12.956951,6.5150136 12.853037,6.2028748 12.63238,5.8112109 12.411811,5.5473944 12.35619,5.480868 12.317653,5.4219242 12.321387,5.4090868 c 0.0036,-0.012304 0.02345,-0.07979 0.04415,-0.1499673 0.07531,-0.2552862 0.08864,-0.3685432 0.08864,-0.753205 0,-0.2790632 -0.0056,-0.3867873 -0.02572,-0.4949955 C 12.394567,3.8286781 12.327452,3.5764256 12.27227,3.4239227 12.22897,3.3042634 12.22645,3.3008876 12.17397,3.2922105 12.08378,3.2772985 11.95682,3.2818435 11.795837,3.3057475 11.361087,3.3703015 10.782305,3.623426 10.192055,4.007145 10.065068,4.089698 10.016745,4.1137178 9.9882332,4.1084564 9.9676822,4.1046634 9.8498161,4.077707 9.7263124,4.0485532 8.6333631,3.7905556 7.3855445,3.7907196 6.311192,4.0490018 6.1910828,4.0778769 6.0758876,4.104634 6.0552026,4.1084621 6.0266902,4.1137387 5.9791524,4.0910107 5.8586603,4.0144948 5.4875726,3.778843 5.0638636,3.5594966 4.7679709,3.4498642 4.4605542,3.3359623 4.0820882,3.2658871 3.8990054,3.2889703 l -0.082796,0.010439 -0.037091,0.097338 C 3.5421443,4.0186458 3.5081459,4.7534949 3.6905018,5.3121268 L 3.7273208,5.4249188 3.602332,5.5805213 C 3.2508055,6.0181471 3.0355302,6.5150978 2.9452484,7.0973612 2.9101873,7.3234848 2.9105619,7.9395558 2.9459551,8.2592156 3.1374125,9.9884009 3.9936603,10.97926 5.6413275,11.37833 c 0.222023,0.05377 0.5775391,0.119156 0.7499373,0.137918 0.1524564,0.01659 0.1490829,0.01375 0.090272,0.07594 -0.1978085,0.209171 -0.3407364,0.505564 -0.4116877,0.853728 -0.01646,0.08077 -0.031402,0.148331 -0.033205,0.150134 -0.0018,0.0018 -0.063646,0.02659 -0.1374278,0.05509 C 5.5956384,12.768381 5.2468718,12.822175 4.9815805,12.792676 4.4651162,12.735248 4.1009703,12.493319 3.7542649,11.97728 3.5797971,11.717601 3.4611739,11.577278 3.3039426,11.444582 3.0087796,11.195478 2.7618992,11.103357 2.4314481,11.11902 c -0.2616358,0.0124 -0.3501831,0.0746 -0.2985768,0.209728 0.030096,0.0788 0.185128,0.225578 0.3207304,0.303645 0.2019008,0.116236 0.4264954,0.371827 0.6332584,0.720655 0.092013,0.155234 0.1285808,0.227682 0.2881022,0.570784 0.1739332,0.3741 0.4670509,0.627802 0.8874943,0.768154 0.4271096,0.142577 0.9453643,0.158021 1.6714644,0.04981 l 0.05949,-0.0089 0.00966,0.46257 c 0.015822,0.75734 0.012734,1.053665 -0.011846,1.136434 -0.055716,0.187618 -0.2763125,0.300621 -0.4953234,0.253736 z"
     id="path6" />
  <path
     style="fill:#0000ff;fill-opacity:0;stroke-width:0.0145587"
     d="M 5.4959054,15.58567 C 5.3363807,15.55152 4.8338214,15.346159 4.4622384,15.163283 3.7007303,14.788503 3.040045,14.320734 2.4259283,13.721565 1.0172425,12.347166 0.18722947,10.569861 0.02927961,8.5896269 0.00976709,8.3449964 0.00974654,7.6621641 0.029244,7.4060493 0.21832722,4.9222878 1.5423169,2.6791675 3.6251137,1.3138809 5.4806819,0.09754409 7.7536933,-0.29007039 9.9144677,0.24136335 11.763894,0.6962223 13.392788,1.8038423 14.510498,3.3665861 c 1.221574,1.7079609 1.718488,3.8582451 1.372542,5.9393594 -0.23487,1.4129075 -0.842851,2.7316395 -1.773745,3.8473185 -0.185635,0.222483 -0.631234,0.675029 -0.862805,0.876255 -0.699851,0.608144 -1.471329,1.07664 -2.329636,1.414723 -0.355264,0.139937 -0.383303,0.147957 -0.51467,0.147205 -0.183377,-0.0011 -0.29805,-0.07405 -0.365714,-0.232813 -0.0223,-0.05232 -0.02461,-0.175007 -0.02593,-1.375013 -0.0013,-1.200498 -0.0037,-1.329203 -0.027339,-1.448589 -0.078745,-0.398426 -0.1917725,-0.657483 -0.3891908,-0.892016 -0.056217,-0.06678 -0.081851,-0.107602 -0.069813,-0.111164 0.010462,-0.0031 0.084536,-0.01341 0.1646091,-0.02292 0.2097612,-0.02491 0.5734327,-0.09461 0.7969097,-0.152737 1.352528,-0.351796 2.156419,-1.121568 2.478867,-2.3736575 0.08751,-0.3398212 0.130626,-0.6438898 0.153849,-1.0850807 C 13.146972,7.3553082 13.098475,6.940129 12.956951,6.5150136 12.853037,6.2028748 12.63238,5.8112109 12.411811,5.5473944 12.35619,5.480868 12.317653,5.4219242 12.321387,5.4090868 c 0.0036,-0.012304 0.02345,-0.07979 0.04415,-0.1499673 0.07531,-0.2552862 0.08864,-0.3685432 0.08864,-0.753205 0,-0.2790632 -0.0056,-0.3867873 -0.02572,-0.4949955 C 12.394567,3.8286781 12.327452,3.5764256 12.27227,3.4239227 12.22897,3.3042634 12.22645,3.3008876 12.17397,3.2922105 12.08378,3.2772985 11.95682,3.2818435 11.795837,3.3057475 11.361087,3.3703015 10.782305,3.623426 10.192055,4.007145 10.065068,4.089698 10.016745,4.1137178 9.9882332,4.1084564 9.9676822,4.1046634 9.8498161,4.077707 9.7263124,4.0485532 8.6333631,3.7905556 7.3855445,3.7907196 6.311192,4.0490018 6.1910828,4.0778769 6.0758876,4.104634 6.0552026,4.1084621 6.0266902,4.1137387 5.9791524,4.0910107 5.8586603,4.0144948 5.4875726,3.778843 5.0638636,3.5594966 4.7679709,3.4498642 4.4605542,3.3359623 4.0820882,3.2658871 3.8990054,3.2889703 l -0.082796,0.010439 -0.037091,0.097338 C 3.5421443,4.0186458 3.5081459,4.7534949 3.6905018,5.3121268 L 3.7273208,5.4249188 3.602332,5.5805213 C 3.2508055,6.0181471 3.0355302,6.5150978 2.9452484,7.0973612 2.9101873,7.3234848 2.9105619,7.9395558 2.9459551,8.2592156 3.1374125,9.9884009 3.9936603,10.97926 5.6413275,11.37833 c 0.222023,0.05377 0.5775391,0.119156 0.7499373,0.137918 0.1524564,0.01659 0.1490829,0.01375 0.090272,0.07594 -0.1978085,0.209171 -0.3407364,0.505564 -0.4116877,0.853728 -0.01646,0.08077 -0.031402,0.148331 -0.033205,0.150134 -0.0018,0.0018 -0.063646,0.02659 -0.1374278,0.05509 C 5.5956384,12.768381 5.2468718,12.822175 4.9815805,12.792676 4.4651162,12.735248 4.1009703,12.493319 3.7542649,11.97728 3.5797971,11.717601 3.4611739,11.577278 3.3039426,11.444582 3.0087796,11.195478 2.7618992,11.103357 2.4314481,11.11902 c -0.2616358,0.0124 -0.3501831,0.0746 -0.2985768,0.209728 0.030096,0.0788 0.185128,0.225578 0.3207304,0.303645 0.2019008,0.116236 0.4264954,0.371827 0.6332584,0.720655 0.092013,0.155234 0.1285808,0.227682 0.2881022,0.570784 0.1739332,0.3741 0.4670509,0.627802 0.8874943,0.768154 0.4271096,0.142577 0.9453643,0.158021 1.6714644,0.04981 l 0.05949,-0.0089 0.00966,0.46257 c 0.015822,0.75734 0.012734,1.053665 -0.011846,1.136434 -0.055716,0.187618 -0.2763125,0.300621 -0.4953234,0.253736 z"
     id="path7" />
  <path
     style="fill:#0c0cf3;fill-opacity:0;stroke-width:0.0145587"
     d="M 5.4959054,15.58567 C 5.3363807,15.55152 4.8338214,15.346159 4.4622384,15.163283 3.7007303,14.788503 3.040045,14.320734 2.4259283,13.721565 1.0172425,12.347166 0.18722947,10.569861 0.02927961,8.5896269 0.00976709,8.3449964 0.00974654,7.6621641 0.029244,7.4060493 0.21832722,4.9222878 1.5423169,2.6791675 3.6251137,1.3138809 5.4806819,0.09754409 7.7536933,-0.29007039 9.9144677,0.24136335 11.763894,0.6962223 13.392788,1.8038423 14.510498,3.3665861 c 1.221574,1.7079609 1.718488,3.8582451 1.372542,5.9393594 -0.23487,1.4129075 -0.842851,2.7316395 -1.773745,3.8473185 -0.185635,0.222483 -0.631234,0.675029 -0.862805,0.876255 -0.699851,0.608144 -1.471329,1.07664 -2.329636,1.414723 -0.355264,0.139937 -0.383303,0.147957 -0.51467,0.147205 -0.183377,-0.0011 -0.29805,-0.07405 -0.365714,-0.232813 -0.0223,-0.05232 -0.02461,-0.175007 -0.02593,-1.375013 -0.0013,-1.200498 -0.0037,-1.329203 -0.027339,-1.448589 -0.078745,-0.398426 -0.1917725,-0.657483 -0.3891908,-0.892016 -0.056217,-0.06678 -0.081851,-0.107602 -0.069813,-0.111164 0.010462,-0.0031 0.084536,-0.01341 0.1646091,-0.02292 0.2097612,-0.02491 0.5734327,-0.09461 0.7969097,-0.152737 1.352528,-0.351796 2.156419,-1.121568 2.478867,-2.3736575 0.08751,-0.3398212 0.130626,-0.6438898 0.153849,-1.0850807 C 13.146972,7.3553082 13.098475,6.940129 12.956951,6.5150136 12.853037,6.2028748 12.63238,5.8112109 12.411811,5.5473944 12.35619,5.480868 12.317653,5.4219242 12.321387,5.4090868 c 0.0036,-0.012304 0.02345,-0.07979 0.04415,-0.1499673 0.07531,-0.2552862 0.08864,-0.3685432 0.08864,-0.753205 0,-0.2790632 -0.0056,-0.3867873 -0.02572,-0.4949955 C 12.394567,3.8286781 12.327452,3.5764256 12.27227,3.4239227 12.22897,3.3042634 12.22645,3.3008876 12.17397,3.2922105 12.08378,3.2772985 11.95682,3.2818435 11.795837,3.3057475 11.361087,3.3703015 10.782305,3.623426 10.192055,4.007145 10.065068,4.089698 10.016745,4.1137178 9.9882332,4.1084564 9.9676822,4.1046634 9.8498161,4.077707 9.7263124,4.0485532 8.6333631,3.7905556 7.3855445,3.7907196 6.311192,4.0490018 6.1910828,4.0778769 6.0758876,4.104634 6.0552026,4.1084621 6.0266902,4.1137387 5.9791524,4.0910107 5.8586603,4.0144948 5.4875726,3.778843 5.0638636,3.5594966 4.7679709,3.4498642 4.4605542,3.3359623 4.0820882,3.2658871 3.8990054,3.2889703 l -0.082796,0.010439 -0.037091,0.097338 C 3.5421443,4.0186458 3.5081459,4.7534949 3.6905018,5.3121268 L 3.7273208,5.4249188 3.602332,5.5805213 C 3.2508055,6.0181471 3.0355302,6.5150978 2.9452484,7.0973612 2.9101873,7.3234848 2.9105619,7.9395558 2.9459551,8.2592156 3.1374125,9.9884009 3.9936603,10.97926 5.6413275,11.37833 c 0.222023,0.05377 0.5775391,0.119156 0.7499373,0.137918 0.1524564,0.01659 0.1490829,0.01375 0.090272,0.07594 -0.1978085,0.209171 -0.3407364,0.505564 -0.4116877,0.853728 -0.01646,0.08077 -0.031402,0.148331 -0.033205,0.150134 -0.0018,0.0018 -0.063646,0.02659 -0.1374278,0.05509 C 5.5956384,12.768381 5.2468718,12.822175 4.9815805,12.792676 4.4651162,12.735248 4.1009703,12.493319 3.7542649,11.97728 3.5797971,11.717601 3.4611739,11.577278 3.3039426,11.444582 3.0087796,11.195478 2.7618992,11.103357 2.4314481,11.11902 c -0.2616358,0.0124 -0.3501831,0.0746 -0.2985768,0.209728 0.030096,0.0788 0.185128,0.225578 0.3207304,0.303645 0.2019008,0.116236 0.4264954,0.371827 0.6332584,0.720655 0.092013,0.155234 0.1285808,0.227682 0.2881022,0.570784 0.1739332,0.3741 0.4670509,0.627802 0.8874943,0.768154 0.4271096,0.142577 0.9453643,0.158021 1.6714644,0.04981 l 0.05949,-0.0089 0.00966,0.46257 c 0.015822,0.75734 0.012734,1.053665 -0.011846,1.136434 -0.055716,0.187618 -0.2763125,0.300621 -0.4953234,0.253736 z"
     id="path8" />
  <path
     style="fill:#0c0cf3;fill-opacity:0;stroke-width:0.0145587"
     d="M 5.4959054,15.58567 C 5.3363807,15.55152 4.8338214,15.346159 4.4622384,15.163283 3.7007303,14.788503 3.040045,14.320734 2.4259283,13.721565 1.0172425,12.347166 0.18722947,10.569861 0.02927961,8.5896269 0.00976709,8.3449964 0.00974654,7.6621641 0.029244,7.4060493 0.21832722,4.9222878 1.5423169,2.6791675 3.6251137,1.3138809 5.4806819,0.09754409 7.7536933,-0.29007039 9.9144677,0.24136335 11.763894,0.6962223 13.392788,1.8038423 14.510498,3.3665861 c 1.221574,1.7079609 1.718488,3.8582451 1.372542,5.9393594 -0.23487,1.4129075 -0.842851,2.7316395 -1.773745,3.8473185 -0.185635,0.222483 -0.631234,0.675029 -0.862805,0.876255 -0.699851,0.608144 -1.471329,1.07664 -2.329636,1.414723 -0.355264,0.139937 -0.383303,0.147957 -0.51467,0.147205 -0.183377,-0.0011 -0.29805,-0.07405 -0.365714,-0.232813 -0.0223,-0.05232 -0.02461,-0.175007 -0.02593,-1.375013 -0.0013,-1.200498 -0.0037,-1.329203 -0.027339,-1.448589 -0.078745,-0.398426 -0.1917725,-0.657483 -0.3891908,-0.892016 -0.056217,-0.06678 -0.081851,-0.107602 -0.069813,-0.111164 0.010462,-0.0031 0.084536,-0.01341 0.1646091,-0.02292 0.2097612,-0.02491 0.5734327,-0.09461 0.7969097,-0.152737 1.352528,-0.351796 2.156419,-1.121568 2.478867,-2.3736575 0.08751,-0.3398212 0.130626,-0.6438898 0.153849,-1.0850807 C 13.146972,7.3553082 13.098475,6.940129 12.956951,6.5150136 12.853037,6.2028748 12.63238,5.8112109 12.411811,5.5473944 12.35619,5.480868 12.317653,5.4219242 12.321387,5.4090868 c 0.0036,-0.012304 0.02345,-0.07979 0.04415,-0.1499673 0.07531,-0.2552862 0.08864,-0.3685432 0.08864,-0.753205 0,-0.2790632 -0.0056,-0.3867873 -0.02572,-0.4949955 C 12.394567,3.8286781 12.327452,3.5764256 12.27227,3.4239227 12.22897,3.3042634 12.22645,3.3008876 12.17397,3.2922105 12.08378,3.2772985 11.95682,3.2818435 11.795837,3.3057475 11.361087,3.3703015 10.782305,3.623426 10.192055,4.007145 10.065068,4.089698 10.016745,4.1137178 9.9882332,4.1084564 9.9676822,4.1046634 9.8498161,4.077707 9.7263124,4.0485532 8.6333631,3.7905556 7.3855445,3.7907196 6.311192,4.0490018 6.1910828,4.0778769 6.0758876,4.104634 6.0552026,4.1084621 6.0266902,4.1137387 5.9791524,4.0910107 5.8586603,4.0144948 5.4875726,3.778843 5.0638636,3.5594966 4.7679709,3.4498642 4.4605542,3.3359623 4.0820882,3.2658871 3.8990054,3.2889703 l -0.082796,0.010439 -0.037091,0.097338 C 3.5421443,4.0186458 3.5081459,4.7534949 3.6905018,5.3121268 L 3.7273208,5.4249188 3.602332,5.5805213 C 3.2508055,6.0181471 3.0355302,6.5150978 2.9452484,7.0973612 2.9101873,7.3234848 2.9105619,7.9395558 2.9459551,8.2592156 3.1374125,9.9884009 3.9936603,10.97926 5.6413275,11.37833 c 0.222023,0.05377 0.5775391,0.119156 0.7499373,0.137918 0.1524564,0.01659 0.1490829,0.01375 0.090272,0.07594 -0.1978085,0.209171 -0.3407364,0.505564 -0.4116877,0.853728 -0.01646,0.08077 -0.031402,0.148331 -0.033205,0.150134 -0.0018,0.0018 -0.063646,0.02659 -0.1374278,0.05509 C 5.5956384,12.768381 5.2468718,12.822175 4.9815805,12.792676 4.4651162,12.735248 4.1009703,12.493319 3.7542649,11.97728 3.5797971,11.717601 3.4611739,11.577278 3.3039426,11.444582 3.0087796,11.195478 2.7618992,11.103357 2.4314481,11.11902 c -0.2616358,0.0124 -0.3501831,0.0746 -0.2985768,0.209728 0.030096,0.0788 0.185128,0.225578 0.3207304,0.303645 0.2019008,0.116236 0.4264954,0.371827 0.6332584,0.720655 0.092013,0.155234 0.1285808,0.227682 0.2881022,0.570784 0.1739332,0.3741 0.4670509,0.627802 0.8874943,0.768154 0.4271096,0.142577 0.9453643,0.158021 1.6714644,0.04981 l 0.05949,-0.0089 0.00966,0.46257 c 0.015822,0.75734 0.012734,1.053665 -0.011846,1.136434 -0.055716,0.187618 -0.2763125,0.300621 -0.4953234,0.253736 z"
     id="path9" />
  <path
     style="fill:#0c0cf3;fill-opacity:0;stroke-width:0.0145587"
     d="M 5.4959054,15.58567 C 5.3363807,15.55152 4.8338214,15.346159 4.4622384,15.163283 3.7007303,14.788503 3.040045,14.320734 2.4259283,13.721565 1.0172425,12.347166 0.18722947,10.569861 0.02927961,8.5896269 0.00976709,8.3449964 0.00974654,7.6621641 0.029244,7.4060493 0.21832722,4.9222878 1.5423169,2.6791675 3.6251137,1.3138809 5.4806819,0.09754409 7.7536933,-0.29007039 9.9144677,0.24136335 11.763894,0.6962223 13.392788,1.8038423 14.510498,3.3665861 c 1.221574,1.7079609 1.718488,3.8582451 1.372542,5.9393594 -0.23487,1.4129075 -0.842851,2.7316395 -1.773745,3.8473185 -0.185635,0.222483 -0.631234,0.675029 -0.862805,0.876255 -0.699851,0.608144 -1.471329,1.07664 -2.329636,1.414723 -0.355264,0.139937 -0.383303,0.147957 -0.51467,0.147205 -0.183377,-0.0011 -0.29805,-0.07405 -0.365714,-0.232813 -0.0223,-0.05232 -0.02461,-0.175007 -0.02593,-1.375013 -0.0013,-1.200498 -0.0037,-1.329203 -0.027339,-1.448589 -0.078745,-0.398426 -0.1917725,-0.657483 -0.3891908,-0.892016 -0.056217,-0.06678 -0.081851,-0.107602 -0.069813,-0.111164 0.010462,-0.0031 0.084536,-0.01341 0.1646091,-0.02292 0.2097612,-0.02491 0.5734327,-0.09461 0.7969097,-0.152737 1.352528,-0.351796 2.156419,-1.121568 2.478867,-2.3736575 0.08751,-0.3398212 0.130626,-0.6438898 0.153849,-1.0850807 C 13.146972,7.3553082 13.098475,6.940129 12.956951,6.5150136 12.853037,6.2028748 12.63238,5.8112109 12.411811,5.5473944 12.35619,5.480868 12.317653,5.4219242 12.321387,5.4090868 c 0.0036,-0.012304 0.02345,-0.07979 0.04415,-0.1499673 0.07531,-0.2552862 0.08864,-0.3685432 0.08864,-0.753205 0,-0.2790632 -0.0056,-0.3867873 -0.02572,-0.4949955 C 12.394567,3.8286781 12.327452,3.5764256 12.27227,3.4239227 12.22897,3.3042634 12.22645,3.3008876 12.17397,3.2922105 12.08378,3.2772985 11.95682,3.2818435 11.795837,3.3057475 11.361087,3.3703015 10.782305,3.623426 10.192055,4.007145 10.065068,4.089698 10.016745,4.1137178 9.9882332,4.1084564 9.9676822,4.1046634 9.8498161,4.077707 9.7263124,4.0485532 8.6333631,3.7905556 7.3855445,3.7907196 6.311192,4.0490018 6.1910828,4.0778769 6.0758876,4.104634 6.0552026,4.1084621 6.0266902,4.1137387 5.9791524,4.0910107 5.8586603,4.0144948 5.4875726,3.778843 5.0638636,3.5594966 4.7679709,3.4498642 4.4605542,3.3359623 4.0820882,3.2658871 3.8990054,3.2889703 l -0.082796,0.010439 -0.037091,0.097338 C 3.5421443,4.0186458 3.5081459,4.7534949 3.6905018,5.3121268 L 3.7273208,5.4249188 3.602332,5.5805213 C 3.2508055,6.0181471 3.0355302,6.5150978 2.9452484,7.0973612 2.9101873,7.3234848 2.9105619,7.9395558 2.9459551,8.2592156 3.1374125,9.9884009 3.9936603,10.97926 5.6413275,11.37833 c 0.222023,0.05377 0.5775391,0.119156 0.7499373,0.137918 0.1524564,0.01659 0.1490829,0.01375 0.090272,0.07594 -0.1978085,0.209171 -0.3407364,0.505564 -0.4116877,0.853728 -0.01646,0.08077 -0.031402,0.148331 -0.033205,0.150134 -0.0018,0.0018 -0.063646,0.02659 -0.1374278,0.05509 C 5.5956384,12.768381 5.2468718,12.822175 4.9815805,12.792676 4.4651162,12.735248 4.1009703,12.493319 3.7542649,11.97728 3.5797971,11.717601 3.4611739,11.577278 3.3039426,11.444582 3.0087796,11.195478 2.7618992,11.103357 2.4314481,11.11902 c -0.2616358,0.0124 -0.3501831,0.0746 -0.2985768,0.209728 0.030096,0.0788 0.185128,0.225578 0.3207304,0.303645 0.2019008,0.116236 0.4264954,0.371827 0.6332584,0.720655 0.092013,0.155234 0.1285808,0.227682 0.2881022,0.570784 0.1739332,0.3741 0.4670509,0.627802 0.8874943,0.768154 0.4271096,0.142577 0.9453643,0.158021 1.6714644,0.04981 l 0.05949,-0.0089 0.00966,0.46257 c 0.015822,0.75734 0.012734,1.053665 -0.011846,1.136434 -0.055716,0.187618 -0.2763125,0.300621 -0.4953234,0.253736 z"
     id="path10" />
  <path
     style="fill:#0c0cf3;fill-opacity:0;stroke-width:0.0145587"
     d="M 5.4959054,15.58567 C 5.3363807,15.55152 4.8338214,15.346159 4.4622384,15.163283 3.7007303,14.788503 3.040045,14.320734 2.4259283,13.721565 1.0172425,12.347166 0.18722947,10.569861 0.02927961,8.5896269 0.00976709,8.3449964 0.00974654,7.6621641 0.029244,7.4060493 0.21832722,4.9222878 1.5423169,2.6791675 3.6251137,1.3138809 5.4806819,0.09754409 7.7536933,-0.29007039 9.9144677,0.24136335 11.763894,0.6962223 13.392788,1.8038423 14.510498,3.3665861 c 1.221574,1.7079609 1.718488,3.8582451 1.372542,5.9393594 -0.23487,1.4129075 -0.842851,2.7316395 -1.773745,3.8473185 -0.185635,0.222483 -0.631234,0.675029 -0.862805,0.876255 -0.699851,0.608144 -1.471329,1.07664 -2.329636,1.414723 -0.355264,0.139937 -0.383303,0.147957 -0.51467,0.147205 -0.183377,-0.0011 -0.29805,-0.07405 -0.365714,-0.232813 -0.0223,-0.05232 -0.02461,-0.175007 -0.02593,-1.375013 -0.0013,-1.200498 -0.0037,-1.329203 -0.027339,-1.448589 -0.078745,-0.398426 -0.1917725,-0.657483 -0.3891908,-0.892016 -0.056217,-0.06678 -0.081851,-0.107602 -0.069813,-0.111164 0.010462,-0.0031 0.084536,-0.01341 0.1646091,-0.02292 0.2097612,-0.02491 0.5734327,-0.09461 0.7969097,-0.152737 1.352528,-0.351796 2.156419,-1.121568 2.478867,-2.3736575 0.08751,-0.3398212 0.130626,-0.6438898 0.153849,-1.0850807 C 13.146972,7.3553082 13.098475,6.940129 12.956951,6.5150136 12.853037,6.2028748 12.63238,5.8112109 12.411811,5.5473944 12.35619,5.480868 12.317653,5.4219242 12.321387,5.4090868 c 0.0036,-0.012304 0.02345,-0.07979 0.04415,-0.1499673 0.07531,-0.2552862 0.08864,-0.3685432 0.08864,-0.753205 0,-0.2790632 -0.0056,-0.3867873 -0.02572,-0.4949955 C 12.394567,3.8286781 12.327452,3.5764256 12.27227,3.4239227 12.22897,3.3042634 12.22645,3.3008876 12.17397,3.2922105 12.08378,3.2772985 11.95682,3.2818435 11.795837,3.3057475 11.361087,3.3703015 10.782305,3.623426 10.192055,4.007145 10.065068,4.089698 10.016745,4.1137178 9.9882332,4.1084564 9.9676822,4.1046634 9.8498161,4.077707 9.7263124,4.0485532 8.6333631,3.7905556 7.3855445,3.7907196 6.311192,4.0490018 6.1910828,4.0778769 6.0758876,4.104634 6.0552026,4.1084621 6.0266902,4.1137387 5.9791524,4.0910107 5.8586603,4.0144948 5.4875726,3.778843 5.0638636,3.5594966 4.7679709,3.4498642 4.4605542,3.3359623 4.0820882,3.2658871 3.8990054,3.2889703 l -0.082796,0.010439 -0.037091,0.097338 C 3.5421443,4.0186458 3.5081459,4.7534949 3.6905018,5.3121268 L 3.7273208,5.4249188 3.602332,5.5805213 C 3.2508055,6.0181471 3.0355302,6.5150978 2.9452484,7.0973612 2.9101873,7.3234848 2.9105619,7.9395558 2.9459551,8.2592156 3.1374125,9.9884009 3.9936603,10.97926 5.6413275,11.37833 c 0.222023,0.05377 0.5775391,0.119156 0.7499373,0.137918 0.1524564,0.01659 0.1490829,0.01375 0.090272,0.07594 -0.1978085,0.209171 -0.3407364,0.505564 -0.4116877,0.853728 -0.01646,0.08077 -0.031402,0.148331 -0.033205,0.150134 -0.0018,0.0018 -0.063646,0.02659 -0.1374278,0.05509 C 5.5956384,12.768381 5.2468718,12.822175 4.9815805,12.792676 4.4651162,12.735248 4.1009703,12.493319 3.7542649,11.97728 3.5797971,11.717601 3.4611739,11.577278 3.3039426,11.444582 3.0087796,11.195478 2.7618992,11.103357 2.4314481,11.11902 c -0.2616358,0.0124 -0.3501831,0.0746 -0.2985768,0.209728 0.030096,0.0788 0.185128,0.225578 0.3207304,0.303645 0.2019008,0.116236 0.4264954,0.371827 0.6332584,0.720655 0.092013,0.155234 0.1285808,0.227682 0.2881022,0.570784 0.1739332,0.3741 0.4670509,0.627802 0.8874943,0.768154 0.4271096,0.142577 0.9453643,0.158021 1.6714644,0.04981 l 0.05949,-0.0089 0.00966,0.46257 c 0.015822,0.75734 0.012734,1.053665 -0.011846,1.136434 -0.055716,0.187618 -0.2763125,0.300621 -0.4953234,0.253736 z"
     id="path11" />
</svg>
